<svg id="visual" viewBox="0 0 1920 1080" width="1920" height="1080" xmlns="http://www.w3.org/2000/svg" xmlns:xlink="http://www.w3.org/1999/xlink" version="1.1"><path d="M1773 0L1773 0L1773 540L1773 540L1773 1080L0 1080L0 540L0 540L0 0L0 0Z" fill="#003d83"></path><path d="M1626 0L1626 0L1626 540L1626 540L1626 1080L0 1080L0 540L0 540L0 0L0 0Z" fill="#003d83"></path><path d="M1478 0L1478 0L1478 540L1478 540L1478 1080L0 1080L0 540L0 540L0 0L0 0Z" fill="#003d83"></path><path d="M1330 0L1330 0L1330 540L1330 540L1330 1080L0 1080L0 540L0 540L0 0L0 0Z" fill="#003d83"></path><path d="M1183 0L1183 0L1183 540L1183 540L1183 1080L0 1080L0 540L0 540L0 0L0 0Z" fill="#003d83"></path><path d="M1035 0L1035 0L1035 540L1035 540L1035 1080L0 1080L0 540L0 540L0 0L0 0Z" fill="#003d83"></path><path d="M887 0L887 0L887 540L887 540L887 1080L0 1080L0 540L0 540L0 0L0 0Z" fill="#003d83"></path><path d="M739 0L739 0L739 540L739 540L739 1080L0 1080L0 540L0 540L0 0L0 0Z" fill="#003d83"></path><path d="M592 0L592 0L592 540L592 540L592 1080L0 1080L0 540L0 540L0 0L0 0Z" fill="#003d83"></path><path d="M444 0L444 0L444 540L444 540L444 1080L0 1080L0 540L0 540L0 0L0 0Z" fill="#003d83"></path><path d="M296 0L296 0L296 540L296 540L296 1080L0 1080L0 540L0 540L0 0L0 0Z" fill="#003d83"></path><path d="M149 0L149 0L149 540L149 540L149 1080L0 1080L0 540L0 540L0 0L0 0Z" fill="#003d83"></path></svg>