<svg id="visual" viewBox="0 0 1920 1080" width="1920" height="1080" xmlns="http://www.w3.org/2000/svg" xmlns:xlink="http://www.w3.org/1999/xlink" version="1.1"><path d="M149 1080L149 1080L149 540L149 540L149 0L1920 0L1920 540L1920 540L1920 1080L1920 1080Z" fill="#003d83"></path><path d="M296 1080L296 1080L296 540L296 540L296 0L1920 0L1920 540L1920 540L1920 1080L1920 1080Z" fill="#003d83"></path><path d="M444 1080L444 1080L444 540L444 540L444 0L1920 0L1920 540L1920 540L1920 1080L1920 1080Z" fill="#003d83"></path><path d="M592 1080L592 1080L592 540L592 540L592 0L1920 0L1920 540L1920 540L1920 1080L1920 1080Z" fill="#003d83"></path><path d="M739 1080L739 1080L739 540L739 540L739 0L1920 0L1920 540L1920 540L1920 1080L1920 1080Z" fill="#003d83"></path><path d="M887 1080L887 1080L887 540L887 540L887 0L1920 0L1920 540L1920 540L1920 1080L1920 1080Z" fill="#003d83"></path><path d="M1035 1080L1035 1080L1035 540L1035 540L1035 0L1920 0L1920 540L1920 540L1920 1080L1920 1080Z" fill="#003d83"></path><path d="M1183 1080L1183 1080L1183 540L1183 540L1183 0L1920 0L1920 540L1920 540L1920 1080L1920 1080Z" fill="#003d83"></path><path d="M1330 1080L1330 1080L1330 540L1330 540L1330 0L1920 0L1920 540L1920 540L1920 1080L1920 1080Z" fill="#003d83"></path><path d="M1478 1080L1478 1080L1478 540L1478 540L1478 0L1920 0L1920 540L1920 540L1920 1080L1920 1080Z" fill="#003d83"></path><path d="M1626 1080L1626 1080L1626 540L1626 540L1626 0L1920 0L1920 540L1920 540L1920 1080L1920 1080Z" fill="#003d83"></path><path d="M1773 1080L1773 1080L1773 540L1773 540L1773 0L1920 0L1920 540L1920 540L1920 1080L1920 1080Z" fill="#003d83"></path></svg>